# xmcd
#
# Track frame offsets:
#	182
#	16470
#	30290
#	47235
#	63482
#	80327
#	97807
#	108520
#	117230
#	127987
#	140810
#	156705
#	179070
#	199615
#	217642
#	235047
#	251757
#	269200
#	287157
#
# Disc length: 4037
#
# Revision: 3
# Processed by: cddbd v1.5.1PL0 Copyright (c) Steve Scherf et al.
# Submitted via: EasyCDDAExtractor 5.0.7
# Normalized: r2:DSETVAR1
#
DISCID=180fc313
DTITLE=Various Artist - Happy Summer Hits
DYEAR=1900
DGENRE=Blues
TTITLE0=Smookie - Living Next Door To Alice
TTITLE1=Svenne and Lota - Bang-A-Boomerang
TTITLE2=Sabrina (Summertime love) - Boys
TTITLE3=Righeira - Vamos A La Playa
TTITLE4=Boys Town Gang - Can`t take My Eyes Off You
TTITLE5=Gary Low - La Coleglaia
TTITLE6=Brian Poole and The Tremeloes - Do You Love Me
TTITLE7=Drifters - Saturdaysnight At The Movies
TTITLE8=Jan and Dean - Little Old Lady Of Pasadena
TTITLE9=Surfers - Windsurfin`
TTITLE10=Flowerpot Men - Let`s Go To San Francisco
TTITLE11=10CC - Dreadlock Holiday
TTITLE12=Scotch - Delirio Mind
TTITLE13=Tony Esposito - Papa Chico
TTITLE14=DJ Bobo - Everybody
TTITLE15=Fever Feat,. Tippa Irie - Staying Alive
TTITLE16=Bill Lovelady - One More Reggae For The Road
TTITLE17=Positive Connextion - My Baby Just Cares For Me
TTITLE18=Johnny Kelvin - Satisfaction Guranteed
EXTD=
EXTT0=
EXTT1=
EXTT2=
EXTT3=
EXTT4=
EXTT5=
EXTT6=
EXTT7=
EXTT8=
EXTT9=
EXTT10=
EXTT11=
EXTT12=
EXTT13=
EXTT14=
EXTT15=
EXTT16=
EXTT17=
EXTT18=Johnny Kelvin
PLAYORDER=
